<svg width="116" height="15" viewBox="0 0 116 15" fill="none" xmlns="http://www.w3.org/2000/svg">
<path fill-rule="evenodd" clip-rule="evenodd" d="M85.58 9.37L94.76 0L94.93 0.17L94.95 0.15L104.13 9.52L113.31 0.15L116 2.9L104.13 15L94.78 5.46L85.58 14.85V14.84V14.85L76.5 5.59L67.28 15H67.27L57.92 5.46L48.73 14.85V14.84L48.72 14.85L39.65 5.59L30.42 15L21.07 5.46L11.87 14.85V14.84V14.85L0 2.74L2.69 0L11.87 9.37L21.05 0L30.42 9.52L39.54 0L48.73 9.37L57.91 0L67.28 9.52L76.4 0L85.58 9.37Z" fill="black"/>
</svg>
