<svg width="133" height="17" viewBox="0 0 133 17" fill="none" xmlns="http://www.w3.org/2000/svg">
<g clip-path="url(#clip0)">
<path fill-rule="evenodd" clip-rule="evenodd" d="M97.53 10.46L107.99 0L108.18 0.19L108.2 0.17L118.67 10.64L129.13 0.17L132.19 3.24L118.67 16.76H118.66L108.01 6.1L97.53 16.59V16.58L97.52 16.59L87.18 6.24L76.67 16.76H76.66L66.01 6.1L55.53 16.59L55.52 16.58V16.59L45.18 6.24L34.67 16.76H34.66L24.01 6.1L13.53 16.59V16.58L13.52 16.59L0 3.06L3.06 0L13.53 10.46L23.99 0L24.18 0.19L24.2 0.17L34.66 10.64L42.12 3.18L42 3.06L45.06 0L55.52 10.46L65.99 0L66.18 0.19L66.2 0.17L76.67 10.64L84.12 3.18L84 3.06L87.06 0L97.53 10.46Z" fill="#00E89C"/>
</g>
<defs>
<clipPath id="clip0">
<rect width="132.19" height="16.76" fill="white"/>
</clipPath>
</defs>
</svg>
